<svg width="92" height="34" viewBox="0 0 92 34" fill="none" xmlns="http://www.w3.org/2000/svg">
<path d="M32.6538 26.2247C30.9445 24.5214 28.1962 24.5214 26.487 26.2247C24.7777 27.928 24.7777 30.6667 26.487 32.37C28.1962 34.0734 30.9445 34.0734 32.6538 32.37C34.3631 30.6667 34.3631 27.928 32.6538 26.2247ZM28.1292 30.7669C27.3248 29.9653 27.3248 28.6628 28.1292 27.8278C28.9336 27.0263 30.2407 27.0263 31.0786 27.8278C31.8829 28.6294 31.8829 29.9319 31.0786 30.7669C30.2407 31.5685 28.9336 31.5685 28.1292 30.7669Z" fill="#FAA004"/>
<path d="M23.9063 20.2464H10.4331C4.83605 20.2464 0.311483 15.7375 0.311483 10.16C0.311483 4.58243 4.83605 0.0736207 10.4331 0.0736207H23.9063C29.5033 0.0736207 34.0279 4.61582 34.0279 10.16C34.0279 15.7041 29.4698 20.2464 23.9063 20.2464ZM9.79632 2.71211C5.74097 2.71211 2.55701 2.11093 2.99271 10.0264C2.99271 10.0598 2.99271 10.0932 2.99271 10.16C2.99271 14.2346 6.34424 17.5411 10.4331 17.5411H23.9063C27.9951 17.5411 31.3132 14.2346 31.3132 10.16C31.3132 6.08536 27.9951 2.7789 23.9063 2.7789H9.89687L9.79632 2.71211Z" fill="#001755"/>
<path d="M13.3154 33.6392H10.7348C6.88049 33.6392 3.46192 31.0341 2.45646 27.3268C0.948275 21.8495 0.210938 16.1717 0.210938 10.4606V8.59025C0.210938 3.88106 4.0652 0.0402222 8.79086 0.0402222C12.6451 0.0402222 16.0637 2.64531 17.0691 6.35255L21.5937 22.8514C22.2975 25.4565 21.7613 28.1618 20.1526 30.2993C18.4768 32.4034 15.9967 33.6392 13.3154 33.6392ZM5.07066 26.6255C5.77448 29.1638 8.08704 30.9339 10.7348 30.9339H13.3154C15.1588 30.9339 16.8681 30.0989 17.9741 28.6294C19.0801 27.1599 19.4487 25.3229 18.9795 23.5528L14.455 7.05392C13.7511 4.51563 11.4386 2.74551 8.79086 2.74551C5.57339 2.74551 2.92568 5.35059 2.92568 8.59025V10.4606C2.92568 15.9379 3.6295 21.3485 5.07066 26.6255Z" fill="#FAA004"/>
<path d="M1.68561 10.1266C2.38943 10.1266 2.99271 9.55881 2.95919 8.82404C2.95919 8.45666 2.95919 8.12267 2.95919 7.88888C3.22732 2.24453 6.14315 2.74551 9.76281 2.74551L9.89687 2.7789H23.9063C27.593 2.7789 30.6764 5.48419 31.2126 8.99104C31.3132 9.62561 31.8494 10.0932 32.4862 10.0932H32.6203C33.4246 10.0932 34.0279 9.39182 33.8938 8.59025C33.1565 3.78086 28.9671 0.0736207 23.9063 0.0736207H10.4331C5.3723 0.0736207 1.18288 3.78086 0.445545 8.62365C0.311483 9.42522 0.914759 10.1266 1.68561 10.1266Z" fill="#018CB7"/>
<path d="M11.0364 32.203C11.0364 31.5017 10.5001 30.9339 9.82984 30.8671C9.66226 30.8337 9.49468 30.8337 9.39414 30.8003C7.3497 30.2993 5.67394 28.7296 5.10418 26.6589C3.66302 21.3819 2.92568 15.9713 2.95919 10.494V8.75725C2.95919 6.05196 4.73551 3.64727 7.38322 2.9793C8.12055 2.7789 8.82438 2.74551 9.5282 2.8457C10.3996 2.9459 11.0699 2.37812 11.0699 1.50976C11.0699 0.808389 10.5672 0.240614 9.86335 0.173816C9.5282 0.140418 9.15953 0.107019 8.82438 0.107019C4.0652 0.0402222 0.210938 3.88106 0.210938 8.55686V10.4272C0.210938 16.1383 0.948275 21.8161 2.45646 27.3268C3.32786 30.4663 5.87503 32.8042 8.99195 33.4388C9.12601 33.4722 9.29359 33.5056 9.49468 33.5056C10.3326 33.6058 11.0364 33.0046 11.0364 32.203Z" fill="#001755"/>
<path d="M31.045 30.7669C30.4082 31.4015 29.4698 31.5351 28.699 31.2011C28.2968 31.0007 27.7941 31.0675 27.4924 31.4015L27.4254 31.4349C26.8891 31.9692 27.0567 32.9044 27.7605 33.2384C29.3693 33.9732 31.3467 33.6726 32.6538 32.37C33.9944 31.0341 34.2625 29.097 33.5252 27.4938C33.19 26.7925 32.2851 26.6255 31.7153 27.1599L31.6483 27.2267C31.3132 27.5606 31.2796 28.0282 31.4472 28.429C31.8159 29.1972 31.6818 30.1323 31.045 30.7669Z" fill="#001755"/>
<path d="M38.0703 33.6475H40.2171V26.7786C40.8455 25.1915 41.9974 24.3329 43.5945 24.3329C43.8825 24.3329 44.1966 24.3589 44.4584 24.4109V22.2254C44.249 22.1733 44.0134 22.1473 43.673 22.1473C42.0236 22.1473 40.8193 22.8238 40.0077 24.3589L39.6935 22.4595H38.0703V33.6475Z" fill="black"/>
<path d="M51.3571 33.9597C53.0327 33.9597 54.4465 33.5434 55.5199 32.7629V30.5773C54.4203 31.54 53.085 32.0344 51.5142 32.0344C49.027 32.0344 47.43 30.8375 47.142 28.782H56.0173C56.0697 28.3397 56.122 27.8454 56.122 27.351C56.122 24.2028 53.949 22.1473 50.6764 22.1473C47.1943 22.1473 44.8904 24.463 44.8904 27.9755C44.8904 31.6701 47.4038 33.9597 51.3571 33.9597ZM47.1682 26.9868C47.4823 25.1394 48.739 24.0727 50.6502 24.0727C52.5876 24.0727 53.7919 25.1134 54.0276 26.9868H47.1682Z" fill="black"/>
<path d="M58.4484 33.6475H60.5953V26.3363C61.3283 24.9573 62.3232 24.1507 63.6584 24.1507C65.0198 24.1507 65.8315 24.9573 65.8315 26.7786V33.6475H67.9783V26.6485C67.9783 26.4404 67.9783 26.2582 67.9521 26.0761C68.659 24.8532 69.7062 24.1507 70.9891 24.1507C72.4029 24.1507 73.2145 24.9833 73.2145 26.7786V33.6475H75.3613V26.6485C75.3613 23.6824 74.0261 22.1473 71.4865 22.1473C69.9942 22.1473 68.6066 22.6937 67.5594 24.2028C66.9834 22.8238 65.8053 22.1473 64.1559 22.1473C62.5327 22.1473 61.3022 22.7978 60.3596 24.1247L60.0717 22.4595H58.4484V33.6475Z" fill="black"/>
<path d="M79.4009 19.7016C80.2387 19.7016 80.8671 19.0771 80.8671 18.2445C80.8671 17.4119 80.2387 16.7875 79.4009 16.7875C78.5631 16.7875 77.9348 17.4119 77.9348 18.2445C77.9348 19.0771 78.5631 19.7016 79.4009 19.7016ZM78.3275 33.6475H80.4743V22.4595H78.3275V33.6475Z" fill="black"/>
<path d="M87.0361 33.9597C90.1517 33.9597 91.801 32.7108 91.801 30.4212C91.801 28.5218 90.6753 27.5331 88.4499 27.1168L87.0361 26.8567C85.4391 26.5705 84.9155 26.2322 84.9155 25.5037C84.9155 24.593 85.7533 24.0467 87.3765 24.0467C88.7902 24.0467 90.1517 24.463 91.1203 25.2175V23.0319C90.2564 22.4855 88.8688 22.1473 87.3765 22.1473C84.4966 22.1473 82.821 23.4222 82.821 25.6338C82.821 27.351 83.8421 28.3918 86.0674 28.8081L87.4812 29.0682C89.0521 29.3544 89.7066 29.6927 89.7066 30.5253C89.7066 31.488 88.7902 32.0604 87.01 32.0604C85.3082 32.0604 83.7635 31.54 82.7163 30.6293V32.8669C83.685 33.5434 85.2558 33.9597 87.0361 33.9597Z" fill="black"/>
</svg>
